<svg xmlns="http://www.w3.org/2000/svg" viewBox="0 0 73.38 73.29"><g id="Layer_2" data-name="Layer 2"><g id="Layer_1-2" data-name="Layer 1"><path d="M36.61,0c20-.13,36.65,16.21,36.77,36.06.13,20.2-16,37.1-35.6,37.23C16.77,73.42.09,57.5,0,37.23-.09,16.41,15.92.13,36.61,0ZM58.19,59.8c8.1-6.71,13.63-21,8-35a31.86,31.86,0,0,0-60.9,6.1c-2.36,12.68,4,24.88,10,28.74C19,46.61,28.28,42,35,41.63,45.71,41,52.16,46.05,58.19,59.8ZM37,68.41a31.35,31.35,0,0,0,15.25-4c1.09-.59,1.61-1.32,1.18-2.51a48.2,48.2,0,0,0-2.69-7A15.94,15.94,0,0,0,32.45,47C25.82,49,21,55.19,19.88,62.51c-.08.54.65,1.46,1.24,1.8A30.36,30.36,0,0,0,37,68.41Z"/><path d="M22,24.19a14.66,14.66,0,1,1,29.31.55A14.66,14.66,0,0,1,22,24.19Zm24.42.19a9.81,9.81,0,1,0-9.81,9.79A9.75,9.75,0,0,0,46.46,24.38Z"/></g></g></svg>