<svg xmlns="http://www.w3.org/2000/svg" viewBox="0 0 78.14 73.34"><g id="Layer_2" data-name="Layer 2"><g id="Layer_1-2" data-name="Layer 1"><path d="M26.9,39.09c.31,1.26.51,2.28.82,3.27.82,2.65,2.43,3.83,5.24,3.83q18.15,0,36.28,0c.77,0,1.73-.21,2.24.16.8.58,1.79,1.59,1.77,2.38s-1.14,1.65-2,2.24c-.41.3-1.21.08-1.83.08H33c-5.15,0-8.72-2.69-10-7.68q-4.55-17-9-34C13,6,11.54,4.92,8.09,4.9c-1.8,0-3.61,0-5.42,0C1.08,4.83,0,4.12,0,2.36S1.1.06,2.63.05C5,0,7.36-.06,9.72.07A9.39,9.39,0,0,1,18.4,7.54c.45,1.78,1.17,2.39,3.07,2.38,17.73-.08,35.45-.05,53.17-.05,3.31,0,4.07,1,3.11,4.26C76,20,74.28,25.85,72.5,31.7c-1.49,4.9-4.92,7.38-10.07,7.38H26.9ZM72.42,14.93h-52c1.64,6.2,3.18,12.18,4.87,18.11.15.53,1.31,1.09,2,1.1,11.75.06,23.49,0,35.24,0,2.94,0,4.42-1.13,5.32-4,1-3.05,1.84-6.12,2.76-9.18C71.2,19,71.79,17,72.42,14.93Z"/><path d="M63.53,73.34a9.75,9.75,0,1,1,9.77-9.76A9.68,9.68,0,0,1,63.53,73.34ZM58.7,63.58a4.88,4.88,0,0,0,4.85,4.91,4.9,4.9,0,1,0-4.85-4.91Z"/><path d="M31.79,73.34A9.67,9.67,0,0,1,22,63.61a9.76,9.76,0,0,1,19.52-.12A9.58,9.58,0,0,1,31.79,73.34Zm4.84-9.69a5,5,0,0,0-4.84-4.95,4.9,4.9,0,1,0-.12,9.8A5,5,0,0,0,36.63,63.65Z"/></g></g></svg>