<svg xmlns="http://www.w3.org/2000/svg" viewBox="0 0 66.13 66.61"><g id="Layer_2" data-name="Layer 2"><g id="Layer_1-2" data-name="Layer 1"><path d="M47.64,66.61c-3.8-1-7.83-1.52-11.36-3.12C20.51,56.37,9,44.87,2.21,28.88A25.78,25.78,0,0,1,.7,12.55C1.85,7.71,5,4.17,8.83,1.31a7,7,0,0,1,9,.76c3.17,3,6.28,6.1,9.28,9.28a7.29,7.29,0,0,1-.07,10c-.09.1-.2.19-.3.29-4,4.07-5.17,3.72-.44,9.27,3.4,4,7.51,7.35,11.48,10.79,1.94,1.69,3.15,1.54,4.82-.5,4.64-5.64,10-5.35,14.54,0,2,2.33,4.33,4.32,6.46,6.5,3.35,3.44,3.3,7.56.08,11.14-4.28,4.74-9.39,7.52-16,7.16ZM4.63,18a75.23,75.23,0,0,0,1.58,7.51C8.54,33,13.06,39.25,18.45,44.87c6.62,6.9,14,12.76,23.39,15.43,6.85,2,13.07,1.22,18-4.52,1.71-2,1.81-3,0-4.8S56,47,54,45.08c-4.12-4.12-4.12-4.12-8.35,0l-.45.44a7.11,7.11,0,0,1-8.84,1.1,49.57,49.57,0,0,1-16.92-17A7.07,7.07,0,0,1,20.59,21c.9-1,1.89-1.85,2.77-2.83a2.51,2.51,0,0,0-.05-3.74c-2.86-2.93-5.77-5.83-8.7-8.7a2.34,2.34,0,0,0-3.39-.16C7.38,8.79,4.69,12.62,4.63,18Z"/></g></g></svg>