<svg xmlns="http://www.w3.org/2000/svg" viewBox="0 0 68.93 63.4"><g id="Layer_2" data-name="Layer 2"><g id="Layer_1-2" data-name="Layer 1"><path d="M34.58,6.8A19.37,19.37,0,0,1,49.92.06,18.18,18.18,0,0,1,68.06,14.4c2.2,9.45.14,18.24-5,26.3C56.47,51.06,46.92,58,36,63.09a3.87,3.87,0,0,1-2.95,0C21.12,57.47,10.79,49.92,4.35,38.06A32.64,32.64,0,0,1,.68,15.29C2.18,8.05,6.35,2.91,13.6.89s14-.61,19.65,4.8l.9.88S34.27,6.63,34.58,6.8Zm29.6,14.69c-.18-1.58-.26-3.18-.55-4.75C62.43,10.3,58,6,52,5.06c-5.79-.93-13.37,2.09-15.24,8a2.79,2.79,0,0,1-2.14,1.54A4,4,0,0,1,32.2,13c-.81-1-1.15-2.41-2-3.35C26.34,5.39,21.42,4.12,16,5.27A12.69,12.69,0,0,0,5.81,15c-2.27,8.46-.2,16.25,4.4,23.43,5.67,8.86,13.9,14.82,23.11,19.52a3.23,3.23,0,0,0,2.49-.14A60.34,60.34,0,0,0,56,42.24,33.68,33.68,0,0,0,64.18,21.49Z"/></g></g></svg>