<svg xmlns="http://www.w3.org/2000/svg" viewBox="0 0 73.38 73.29"><g id="Layer_2" data-name="Layer 2"><g id="Layer_1-2" data-name="Layer 1"><path d="M41.66,51.42H31.88c-.05.79-.12,1.51-.12,2.24q0,8.13,0,16.26c0,2.76-.58,3.35-3.25,3.35-4.59,0-9.18,0-13.77,0a7.1,7.1,0,0,1-7.38-7.35c0-10.35,0-20.7,0-31.06,0-1.69.59-2.89,2.41-3,1.56-.1,2.48,1.07,2.48,3.16q0,14.79,0,29.6c0,3.31.54,3.84,3.9,3.85H26.77c.05-.87.11-1.6.12-2.33,0-5.35,0-10.7,0-16.05,0-2.86.76-3.58,3.57-3.59H42.78c3.15,0,3.71.57,3.72,3.81,0,5.21,0,10.42,0,15.64v2.43c4.38,0,8.53.11,12.67-.06,1.74-.07,2-1.61,2-3.12q0-14.7,0-29.39c0-.63-.22-1.45.09-1.84a5.24,5.24,0,0,1,2.46-2c1.29-.27,2.13.77,2.29,2.14a14,14,0,0,1,0,1.45q0,14.91,0,29.82c0,5.1-2.91,8-8,8H44.88c-2.63,0-3.21-.57-3.21-3.18,0-5.22,0-10.43,0-15.64C41.67,53.5,41.66,52.55,41.66,51.42Z"/><path d="M70.6,31.73a18.39,18.39,0,0,1-2.24-1.37c-10-7.79-19.91-15.57-29.8-23.44-1.38-1.09-2.26-1.15-3.68,0C25.05,14.73,15.14,22.46,5.26,30.22c-.33.26-.65.53-1,.77C3,31.94,1.65,32.14.59,30.8s-.62-2.62.65-3.63q3.66-2.91,7.36-5.8L34,1.42c2.41-1.89,3-1.91,5.43,0L71.53,26.66a6,6,0,0,1,1.56,1.62C74,29.85,72.85,31.64,70.6,31.73Z"/></g></g></svg>