<svg xmlns="http://www.w3.org/2000/svg" viewBox="0 0 58.75 73.04"><g id="Layer_2" data-name="Layer 2"><g id="Layer_1-2" data-name="Layer 1"><path d="M0,30C0,16.21,8.44,4.68,21.2,1.13A29.38,29.38,0,0,1,54.58,14.25c4.65,7.73,5,16.05,3,24.59C54.82,50.81,47.7,60,38.37,67.56A59.86,59.86,0,0,1,31,72.65a3.72,3.72,0,0,1-3.24,0c-12.66-7.88-22.41-18.16-26.44-33a42.25,42.25,0,0,1-1-5.11C.14,33.1.11,31.56,0,30Zm53.92-1.33A23.57,23.57,0,0,0,40.55,7.63C31.68,3.07,22.82,3.79,14.8,9.74,5.74,16.46,3.39,25.84,5.59,36.48,8.43,50.2,17.18,59.73,28.38,67.33a2.53,2.53,0,0,0,2.33-.24,115.4,115.4,0,0,0,10.77-9.16C49,50.14,53.62,40.9,53.92,28.71Z"/><path d="M44.07,29.3A14.68,14.68,0,1,1,29.31,14.61,14.78,14.78,0,0,1,44.07,29.3Zm-4.93.06a9.8,9.8,0,1,0-9.89,9.75A9.88,9.88,0,0,0,39.14,29.36Z"/></g></g></svg>