<svg xmlns="http://www.w3.org/2000/svg" viewBox="0 0 453.13 246.63"><defs><style>.cls-1{fill:#383736;}.cls-2,.cls-8{fill:#e8cacb;}.cls-2{stroke:#000;}.cls-3{fill:#4e4a49;}.cls-4{fill:#444;}.cls-5{fill:#615a59;}.cls-6{fill:#ebded5;}.cls-7{fill:#f4e7de;}.cls-9{fill:#f5f1ea;}.cls-10{fill:#deb8b1;}.cls-11{fill:#8a6866;}.cls-12{fill:#b29079;}.cls-13{fill:#c3a8a1;}.cls-14{fill:#f5d3d4;}</style></defs><g id="Layer_2" data-name="Layer 2"><g id="Layer_1-2" data-name="Layer 1"><path class="cls-1" d="M108.75,130.56c0,14.48-9.38,23.29-24.7,23.29H69.34V107.19l14.71,0C99.37,107.1,108.75,116,108.75,130.56Zm-12,0c0-7.33-4.93-11.79-13-11.79H81v23.43h2.85C91.85,142.17,96.75,137.77,96.75,130.53Z"/><path class="cls-1" d="M112.66,130.56c0-14,10.74-24.65,24.76-24.65s24.75,10.63,24.75,24.65S151.43,155,137.39,155,112.66,144.46,112.66,130.56Zm37.4-.09a12.65,12.65,0,1,0-12.64,12.72A12.5,12.5,0,0,0,150.06,130.47Z"/><path class="cls-1" d="M161.67,107.16h13l6.24,21.37,9.23-21.28H191l9.23,21.23,6.21-21.32h13l-15.05,47H201l-10.54-23.08L180,154.13h-3.27Z"/><path class="cls-1" d="M262.84,107.1v47.21H259l-23.19-23.26v22.82h-12V106.7h3.86l23.1,23.17V107.1Z"/><path class="cls-1" d="M301.55,118.74H290.76v35.11h-12V118.74H267.94V107.16h33.61Z"/><path class="cls-2" d="M302.45,130.56c0-14,10.74-24.65,24.76-24.65S352,116.54,352,130.56,341.22,155,327.18,155,302.45,144.46,302.45,130.56Zm37.4-.09a12.65,12.65,0,1,0-12.64,12.72A12.5,12.5,0,0,0,339.85,130.47Z"/><path class="cls-2" d="M351.46,107.16h13l6.24,21.37,9.23-21.28h.89L390,128.48l6.21-21.32h13l-15.05,47h-3.3l-10.54-23.08-10.46,23.08h-3.28Z"/><path class="cls-2" d="M452.63,107.1v47.21h-3.8l-23.19-23.26v22.82h-12V106.7h3.86l23.1,23.17V107.1Z"/><path class="cls-1" d="M82.68,175.61a33.23,33.23,0,0,1,4.81.71l1.93,0,2.43,1.39,2-1.06c4.7-2.13,6.73-1.51,7.51,2.27,2-.14,3.68,0,1.68,2.43-1.45,1.78-3.11,3.38-4.67,5.06l2.94.61c-.32.76-.64,1.49-1,2.22l4.63-.18-.1-4.56c-.07-3.65,2.72-2.25,4.54-2.57-.19-.88-.37-1.77-.55-2.66-3.25-1.57-.63-3,.46-3.34,1.36-.45,3.07.17,4.62.33l5.77,2,.65,1c3.28,4.15,6.43,8.4,9.88,12.41,1.6,1.85,2.23,3.21.7,5.5-3.56,5.32-3.92,11.34-3.1,17.51l1.54-.87c.1-10,.76-12.38,5-16.3.34,2.41.62,4.33.89,6.25l3.32,2a25.25,25.25,0,0,0,13.12,12.3c-.9-1.23-1.56-2.79-2.74-3.63-5.87-4.22-9-10.2-11-17.3l7.2,4-.75-2.65,1.53-.18a20.91,20.91,0,0,0,14.79-5c-6.91-4-14-4.9-21.07-2.37-4.26,1.53-7,.51-9.47-2.58-2.65-3.27-5.18-6.65-7.76-10-.24-.71-.49-1.42-.74-2.14l1.46.1c2.27.06,4.54.17,6.82.17,68.27,0,116.54,0,184.81,0,2.73,0,5.45-.13,8.18-.19l6-.42h.24l.11-.2,0-15.92a9.8,9.8,0,0,1-1.63.05c-.9,0-1-.05-2.33-.05v11.64H44.68V88.21H325.23v13.45c1,0,1.61.06,2.65.06l1.37,0V90.2c0-1.6-.14-5.29-.15-6.87a15.61,15.61,0,0,0-4.53-.27c-19.95-.17-19.91-.08-39.86-.16-1.64,0-3.27-.79-4.9-1.22L279.54,79c.12-.92.25-1.84.37-2.76l1-3.16-2.3-.36-3,4.67,1.71,4.15c-1.84.21-3.76.83-5.5.51-1.32-.25-2.43-1.69-3.63-2.6-2.33,5.1-5.08,5.31-8.46.65-2.28,4.11-3.21,4.06-7.7-.44l-1.27,1.07.45,1.93-9-.79-2-.57-11.79,1-3.15.77-10.1-2-1.91,1.44c-3.59-.09-7.27.29-10.73-.43-3.07-.63-4.6-3.16-3.6-6.57l-.15-1.7L197,73.35l-1.08,1.11c.07,1.46.49,3,.11,4.34-.24.83-1.7,1.31-2.6,1.94l-1.7,2.5a83.19,83.19,0,0,0-9.06-.24c-3,.21-4.21-1-5.23-3.7-1.88-4.9-4.26-9.6-6.43-14.39-3,3.49.93,5.26,1.6,6.55l-4.81,4.71c.84.67,1.68,1.34,2.51,2l2.95.79c.52.87,1.05,1.73,1.58,2.6-.19.45-.38.91-.56,1.36l-5.62-2.16c-3.34,2.53-7,1.92-10.69,1.08l-1.39-.49c-2.2.87-4.3,3.46-6.74.41l-2.27-.17-6.42,1.6-2.54-1.5-8-.13-3.52,1.69c-1.2-.11-2.4-.32-3.6-.32-59.26,0-18.51,0-77.76,0-.61,0-1.22,0-1.83,0-3-.13-4.31,1.05-4.3,4.29.1,28.25,0,56.5.12,84.76,0,1.3.88,2.61,1.35,3.91l4.19.4,7.49,0M173.26,79l.66-2.37,1.09.72ZM156.17,193.46a15.5,15.5,0,0,1-17-.34A23.92,23.92,0,0,1,156.17,193.46Z"/><path class="cls-3" d="M186,72.85,184.89,74c-3.22-.35-6.44-.74-8.93,2.26l6.44,4-1.7,2.49c-1.32-1.13-2.48-2.91-4-3.27-3.68-.87-3.67-2.44-1.83-5.09a28.9,28.9,0,0,0,2-3.74c-3.46-1.32-6.37-2.24-9.08-3.57-.76-.38-1.44-2.79-1.29-2.87,3.31-2,1.81-7.61,6.45-8.68,1.2-.27,2.22-1.36,3.32-2.08l-.88-1.95c-2.38,0-4.78-.15-7.16,0-4.14.31-5.33-1-3.37-4.53,1.4-2.5,3.53-4.59,5.38-6.94a8.31,8.31,0,0,1-2.45-.77c-1.31-.77-3.6-2.43-3.45-2.73.85-1.76,2.18-4.43,3.56-4.55,3-.27,6,.82,9.08,1.34,1.71,1.68,2.66.62,3.44-1l4,3,.89-.91c-.47-1.68-1.27-3.34-1.3-5,0-1.86,1.17-3.85.82-5.58-.28-1.35-2.11-2.38-3.25-3.56l-2.08.82c.44-1.17.78-3.28,1.34-3.33a5.35,5.35,0,0,1,4,1.23c1.57,1.65,2.6,3.81,3.85,5.76l1.27-.27c-.29-2.87-.72-5.75-.84-8.63a27.15,27.15,0,0,1,.66-4.83c6.47,1.86,12.13,3.43,13.85,10.6.61,2.52,2.4,2.37,3.91,0,.39-.47.79-.94,1.18-1.42l3.65,6.27L215.19,22l1.83-.05,3,2.15c1.45-2.12,2.85-3.61,3.57-5.38a42.81,42.81,0,0,0,2.67-8.9c.35-2.07-.74-3.32-2.9-1.48L222.14,7q2.19-1.14,4.39-2.27c.92,2.84,1.85,5.68,2.81,8.65,1.65.46,4.93.43,5.89,1.91,1.13,1.75.27,4.79.27,7.72,2.32-1.88,4.34-5.46,7-1l-2.24.25c-.72.69-2,1.31-2.07,2.08-.78,6.36-1.35,12.75-2,19.13,0,.17.39.37,1.4,1.27l4.64-5.43L244.54,41c5.69.51,5.61.53,4.22-4.81-.25-1,.52-2.19.83-3.29L254,35.26c-.69,1.83-1.37,3.66-2.34,6.26l11.6-5.93,1.2,1.25-5.16,4.55c4.4-.49,7.61-1.14,10.8-1.07,1.49,0,2.94,1.47,4.41,2.28l-3,3c.18-1,.35-2.06.6-3.54-5.9,1.61-13.17-1-15.79,7.17-.14.43-.88.68-1.34,1a2,2,0,0,0-.64,0l1.81-6c-4.75-1.83-7.41,1.22-10.1,4.22a9.4,9.4,0,0,0,0-3.18c-.32-.87-1.72-2.22-2-2.08-2.93,1.55-5.73,3.35-8.56,5.08l.65,1.06h9C242.59,53,240,56.58,237,60.69c4.83,1.2,7.06.38,8.6-3.44,1.13-2.82,1.81-7.23,6.87-6l-3.68,3.86L252,56.17l-4.62,4.33c2.93,0,4.54.12,6.13,0,3.64-.32,7.26-.76,10.88-1.15L255,62.79c1.33,4.73,5.07,4.35,8.17,3.64,3.34-.76,6.42-2.62,9.62-4-.76-1.07-1.36-2.84-2.32-3.06-1.93-.45-4.06-.06-6.1,0,.89-2.23,1.78-4.45,3-7.5L257.05,53c0-.63,0-1.27,0-1.91a21,21,0,0,0,13.06-5.52c.27-.24,1,0,1.48,0-.28.71-.61,1.4-.86,2.12-.52,1.53-1,3.07-1.51,4.61l0,2.12-.78,2.31,6.94.94.87,2.58c.77.18,1.81.78,2.25.48,5.5-3.73,11.7-6.84,16.2-11.55,11.56-12.13,31.8-8.29,40.24,2.94a190.4,190.4,0,0,1,11.74,18.36C336.4,63,326,66.09,315.29,68.82a70.9,70.9,0,0,1-16.15,1.72c-5,.1-9.08-1.9-11.17-7-1.17-2.88-3.62-3.62-6.36-2.11-2.33,1.28-4.47,2.89-7,4.56,1.49,1.12,2.88,1.65,3.3,2.61.71,1.65,1.49,3.81.95,5.28-.4,1.11-2.77,1.81-4.38,2.08a26.1,26.1,0,0,1-5.57-.17c.35-1.06.69-2.11,1-3.16a4.82,4.82,0,0,0,1.32.26c2-.15,3.91-.36,5.87-.55-1.69-1.51-3.29-3.12-5.1-4.44-.6-.45-1.76-.24-2.65-.16-3.14.26-6.29.47-9.4,1-.87.14-1.61,1.16-2.71,2l9.21,1.53.09.76.89-.46.18-.26-3,4.67-12.16-3.7-6.58-2.47-.6,1.81,7.25,2.16,4.67,4.33-6.79-2.38-1.69,3.2c-4.34-8.52-15.16-12.07-20.79-5.69,2.86,1,5.36,1.88,7.83,2.82,1.78.67,3.51,1.45,5.27,2.19l-1.27,1.06c-3.14-1.65-6.09-2-8.59,1.14l-2-.56c1.89-1.61,1.53-2.91-.44-4.19-4.76-3.09-10.25-.6-11.35,5.22l-3.15.76c-.77-.74-1.56-2.14-2.32-2.13-3.53.06-5.31-1.41-6.63-4.77-1.6-4.06-6.56-5.48-11.37-3.73l3.44,5.51-9.46-2.44-.15-1.7c1.56-.85,3.16-1.64,4.63-2.63a4.65,4.65,0,0,0-1.21-2.4c-3.64-2.71-8.3-2.1-11.82,1.56Zm139.38-9.92.92,0,3.07,1.29c-.58-2.13-.95-3.48-1.32-4.82,1-.92,1.92-1.84,2.87-2.77,3.42-2.85,1.91-4.41-1.44-5.48l-2.94-2.38-1.17-1.19-3.65-.83c-1-2.26-2.38-2.35-4.1-.8l-1.36-.24c-1.88-3.94-3.74-1.13-5.61,0l-4.21-1-5.67,3.66c-3.05,2.06-6.16,4-9.08,6.26-.45.34,0,1.81,0,2.76l-3.49,1.73c1.24,2.26,2.29,4.47,3.66,6.47.42.61,1.72.62,2.61.91l1.34.17.56.83,3.56.72,3.06-.66.26,0,.26-.05c1-.15,3.13,3.11,3-.91a3.54,3.54,0,0,0,.73,0c1.21.95,2.43,3.1,3.65,0h.89l2.79-.91.4,0h.4l3.78-.94c1.11-1.2,2.22-2.41,3.34-3.61ZM198.68,61.09l5.47,9c.08-.51.25-1.63.55-3.47l3.1,7.4,1.83-.46c-.64-4.18-.91-8.46-2-12.51-1.69-6.18-6.09-7.84-12.56-5l3.67,5a32.65,32.65,0,0,1-3.94-1.35c-3-1.49-6-3-9-1.3,2.54,2.31,5.49,3.93,6.76,6.41,1.92,3.75,4.46,4.35,8.32,3.9Zm-7.85-8.46,2.82,2.11c-.14-1.4-.23-2.39-.34-3.51l4.2.63C196.24,41.46,193.09,37,187.25,37l6.67,12.32c-4.15-4.46-6.69-5.34-13.41-4,1,2.15,1.77,4.66,3.29,6.54,1.29,1.61,3.47,2.51,5.25,3.72l1.27-2.45ZM226,48.48c-8.57,4.11-13.43,9.92-9.27,16.51l3.78-6.13c-.27,2.5-.38,3.6-.5,4.69C223.93,59.26,227.48,54.93,226,48.48Zm12.48,3.17c-8.72,0-12.14,5.73-14.68,12.72C230.81,63.69,240,58,238.52,51.65Zm-26-8.68c-7.17,5.5-5.18,11.94-2.49,18.48C215.84,54.63,216.89,47,212.57,43ZM215,76.87c2.36-1.83,5-3.67,7.31-5.78a6,6,0,0,0,1.34-3.18c.06-.29-1-1.07-1.6-1.19-7.3-1.43-12.26,3.53-11,11.3l3.68-2.1C215,76.79,215.19,77.47,215,76.87ZM192.3,14.67c-.21,2.76-1,5.44-.37,7.67a7,7,0,0,0,4.56,3.92c1.71.35,3.78-1.15,5.68-1.84C200.78,17.27,199.6,16.15,192.3,14.67Zm15.14,28c-.68-4.32-.56-7.9-1.94-10.77-.94-2-4-2.94-6.07-4.36-.42,2.3-1.32,4.64-1.1,6.88.14,1.41,1.8,2.83,3,3.95A68.06,68.06,0,0,0,207.44,42.67ZM222.22,47c7.45-4.74,8-11.34,2.27-18.9C220.08,33.85,223.05,40.34,222.22,47Zm-5.17,1.56,2,0a8.45,8.45,0,0,0,.91-2.39c.23-5.55.36-11.11.5-16.67a1.24,1.24,0,0,0-.24-.86c-1.1-1-2.24-2-3.37-3-.47,1.43-1.34,2.87-1.3,4.29.05,2.22.92,4.42,1.08,6.65C216.92,40.62,216.93,44.6,217.05,48.58ZM246.29,62c-1.19.85-4.23,1.92-4.45,3.41-.46,3,2,4.06,5.11,4,1.7,0,3.44.87,5.12,1.46,2.64.93,3.51-.36,3-2.63C254.19,64.22,250.83,63.14,246.29,62ZM187.43,42.41c-2.75-6-17-10.33-21.2-5.73C174.23,36.3,179,44.87,187.43,42.41Zm37.46,30.4c4.22-5.3,9.82-3.91,15.27-3.36-2.11-6.56-2.11-6.56-4.62-6.57C230.84,62.85,226.87,66.23,224.89,72.81ZM209.52,41.64c2.79-1.36,6.62-2.54,5.18-7.76-1.23-4.51-4.59-6.19-8.34-7.77C207.47,31.58,208.52,36.73,209.52,41.64Zm-12.81-2.17c.79,3.08,1.68,5.79,2.13,8.58.59,3.61,2.51,5.07,6,4.78C205.84,43.64,204.33,41.13,196.71,39.47Zm31.23-10.78c2-3.43,3.84-6.34,5.45-9.35a2.63,2.63,0,0,0-.12-2.47,3.26,3.26,0,0,0-2.75-.64c-4,1.51-6.84,4.19-8,9.7C226.77,22.8,226.89,26.26,227.94,28.69Zm5.6-4.66-1.65-.14L229.94,40l1.25.92c1.19-.93,3.06-1.64,3.45-2.84C236.22,33.28,237,28.39,233.54,24ZM166.92,48.12l15.47,3.61c-1.95-2.29-3.23-3.73-4.44-5.23C173.55,41.1,169.56,41.75,166.92,48.12ZM186.3,26.23c-1.25,5.42,1.1,8,5.5,9.12a30.47,30.47,0,0,0,4.29.52c-.46-1.63-.4-3.88-1.47-4.76C192.23,29.17,189.28,27.91,186.3,26.23Zm-2,30c-4.21-3.32-5.54-3-11.34,2.84A10.06,10.06,0,0,0,184.26,56.18Zm45-4.36c4.8-1.47,5.37-4.66,4.66-8.58C227.75,42.89,227,44.25,229.25,51.82ZM189.58,64.23l.53-.87a94.6,94.6,0,0,0-10.17-2c-.88-.09-1.94,1.77-2.92,2.74,1.26.51,2.55,1.5,3.77,1.43A87.91,87.91,0,0,0,189.58,64.23ZM174,61.74c-1.84,1-3.34,1.72-4.71,2.64-.18.12.18,1.72.58,1.87a59.59,59.59,0,0,0,5.92,1.56C175.05,65.25,174.65,63.89,174,61.74Zm83.53-20.57.09.56,2.17-.25-.17-.86Z"/><path class="cls-4" d="M68.49,190.94c-2.16,2.09-4.22,4.32-6.52,6.25-2,1.69-2,3.12-.8,5.41C63,206,65,209.65,65.52,213.38c1.56,11.36-3.15,19.13-14.15,24.48l-2.73-6.53.67-2,2,.49,1.69-.2,1.64.17.86.84c0,.3-.15.68,0,.88s.62.46.81.38c7.66-3.41,10-19.65,4.14-25.14-.68,5.9-1.41,12.17-2.13,18.43l-1.62-.09c1.93-6.87,1.93-13.76.12-22.1l-3.11,7.6H52l-1.55-.06c-.19-.72-.39-1.43-.59-2.14.27-.69.54-1.39,1.23-3.2-6.29,3.89-12.66,5.57-16.91,11.1C25.83,227.2,14.49,230.44,0,222.7c4.53-8.88,15.63-15,27.19-13,12.46,2.08,20.27-5.43,29.24-11.79-11.82,3.88-21.1-1.26-30.76-7.86,7.93-6.29,16.34-9.31,25.89-6.93,4.11,1,7.78,3.8,11.72,5.63a17.58,17.58,0,0,0,3.89.84ZM38,192.63H35.08c5.61,2.91,11.16,5.85,17.57,2.8l.21-2,9.07-1-.07-1.3c-8.19-3-16.54-3.1-25.94-1l3.2,1.43ZM12.7,221.48,6.17,223c9.19,2.75,16.86,2.31,22.89-5l2.59-.94-1.17-1.19-2.48.3a48.6,48.6,0,0,0-6.73-.93c-6.72,0-11.17,1.56-14,4.85h5.44Zm23.11-34.33H54.46C48.32,183.88,42.09,184,35.81,187.15Zm-6.6,25.45c-7.14-2-13.56-1-17.37,2.21Z"/><path class="cls-3" d="M119.61,81.09l-3.52,1.68A8.43,8.43,0,0,0,115,80.33c-3.66-4-7.76-7.74-11-12-4.31-5.66-8.79-10.77-17.17-11.81,15.35-11.23,31.14-16.55,49-12.55A32.05,32.05,0,0,1,156.1,58.31l-1.33,1.3q-1.5-2.16-3-4.34c-1.08,13.37-1.08,13.37,3,14.82l.61-7.12,3.07-.88-.57.6,1,.93s-.1-.07-.1-.06l1.06.91.09,0c-3,3.49.93,5.26,1.61,6.55l-4.82,4.71-3.69-1.76-1-.89-3-1.57-1.52-.29c.07-3-1.83-2.87-3.91-2.4l-1.5-.32-5.46-2.74h-1.89L132.32,64l-2-.08-4.26-1.66-1.92-.19c-2-3.25-4.19-2.23-6.39-.22l-.42-1.93c-1.79.11-4.32,1-5.25.19-4.81-4.38-6.51.77-9.48,2l-.29,1.73L109,66.47l1.76.38-2.64,3,2.94.81c.05.52.09,1,.14,1.55L113,73.42l.23,1.78,3.45,1.58c.3.87.6,1.74.91,2.62Zm4.5-34.62-.33,1.74c-1.74-2.67-4.19-3.35-7.16-2.53-.32.75-.65,1.51-1,2.27-3.14-2.05-3.52-2-4.16.38l-1.56.26-4,.55-.2,1.7a12.37,12.37,0,0,0-3.3-1.22c-.61,0-1.54.85-1.85,1.53-.22.48.23,1.82.6,1.92,2.77.71,5.58,1.23,8.4,1.75.71.13,1.51-.12,2.2.08,1.58.45,3.11,1.06,4.66,1.61l1.93-.85,4,1h1.43c2.67,3.19,4.38,3.47,5.46.87l1.34-.29,1.5,3.2,2-1,1.45,0c.7,3.1,1.81,5.24,4.88,2.41l4,3.78,1.48-.81c-.81-3.9-1.51-7.82-2.45-11.69-1-4.33-3.85-6.64-8.4-6.64l-2,.17c-1.8-1.44-3.61-3-5.39,0C124.45,44.85,124.45,44.85,124.11,46.47Zm23.47,20.67c3.09-6.49,1.62-13.25-2.51-16.07C145.93,56.55,146.75,61.85,147.58,67.14Z"/><path class="cls-4" d="M289.91,24.81q-2.19,8.67-4.4,17.33l1.25.7c1.61-1.83,3.37-3.56,4.79-5.53a19.6,19.6,0,0,0,1.78-4.16C300.85,14.57,316.66,9.32,334,19.64l-.42.51L325.3,24.2l-8.58,2.34-9.38,3.39-.27-2.66,4.86-2.53c1.3-.25,3.15-.06,3.81-.86,2-2.37,3.65-3.14,6.62-1.32.72.44,3.12-1.87,4.75-2.91-1.54-.9-3-2.26-4.66-2.55-1.08-.18-2.43,1.19-3,1.51l-5.25-1.89-7.88,3.44-1.83.39c-1.07,1.38-2.13,2.76-3.2,4.13-2.51,1.18-6.23,7.8-5.87,10.69.05.48.75.87,1.15,1.31a6.65,6.65,0,0,0,2.39.61c4.88-.73,9.9-1.1,14.55-2.59,3.14-1,7.44-.15,9.22-4.26l7-2.21,1.08,0,1.19.82a43.61,43.61,0,0,1-24,8.74c-12.23.76-21.28,6.2-28,16.13l-1.24-1.26c1.8-4.11,4.28-8.08,5.22-12.37,1.08-5,.81-10.24,1.14-15.38ZM286,43.3l-.3-.33c-.1.11-.28.22-.28.32s.18.22.28.32Z"/><path class="cls-3" d="M92.14,233.61l-15.32,13-1.16-.71c3.26-10.29,1.93-20.5.09-30.71h1.61l1.94,1.92,1.31.93c-.49,2.41-4.9,5.1.5,7.1a16,16,0,0,0-1.67,3.26,2.76,2.76,0,0,0,.64,2.36c.47.41,2,.47,2.29.1,1.66-2.2,3.09-4.57,5.14-7.7l-3.72.29c1-1.33,2-2.63,2.87-4,1.66-2.54,3.71-5.12.14-7.77l-1.68-.32q2.16-4.47,4.34-9l1.93.16a1.59,1.59,0,0,0,0,.78c-1.77,5.39,3.16,7.66,5.23,11.26L93,213.27l-2.28-1.33.33,1.42c-1.17,3.64.34,6.61,2.37,9.45l-4.09,2.36-.08.1C86.19,229.44,90.16,231.18,92.14,233.61Z"/><path class="cls-3" d="M40.75,175.81a33.44,33.44,0,0,1,4.83-.69c42,0-15.95,0,26.08,0a33.54,33.54,0,0,1,4.82.7,33.39,33.39,0,0,1-3.58.36c-42.86,0,14.29,0-28.57,0A33.65,33.65,0,0,1,40.75,175.81Z"/><path class="cls-3" d="M89.3,188.79l4.63-.18,4.44,2.68,1.15-1.12-5.68-6.12c-.07-3.65,2.71-2.25,4.53-2.57,5.71,13.62,9.11,27.36,1.61,41.46a85.26,85.26,0,0,1-5,7.47c-.24-2.11-.47-4.23-.71-6.34l2.24.69,1-7.78c4.11-1.28,4.72-4,1.84-8.16,7.56-1.41-.28-4,.42-5.5.77-.92,1.93-1.71,1.82-2.25-.82-4-5.18-6.9-9.48-6.56L90,191.37l-1.42-.7-1-.89Z"/><path class="cls-5" d="M77.36,215.2H75.75C71,201.88,74,192.42,88.27,176.6l-5.48-.4c4.7-2.13,6.73-1.52,7.52,2.26L80.07,188.71l.83.87,2-.85,1,1-5.17,4.88-2.2,1.1,1,1,1.82-1.48c1.19-.65,2.39-1.29,3.59-1.93-1,1.27-2,2.57-3,3.81-1.25,1.47-2.57,2.89-3.86,4.34l.84.72,8.48-7.13,2.12-.14v.39c-3.29,3-6.71,6-9.82,9.2-.95,1-1,2.8-1.53,4.23l1.73.88,9.42-10.14.13,2a80.46,80.46,0,0,0-5.68,6.31A82.61,82.61,0,0,0,77.36,215.2Z"/><path class="cls-5" d="M254,35.26l-4.44-2.41a69.32,69.32,0,0,0,4.29-7.94c.3-.74-1.21-2.19-1.89-3.31-2,2-5,3.74-5.7,6.16-1.31,4.17-1.24,8.77-1.75,13.19l-2.24-1.69c2.43-6,2.52-11.82-2-17l2.24-.25c1.54,2.49,3.25,2.92,5.25.48.67-.82,1.28-1.89,2.17-2.26,1.42-.59,3.35-1.35,4.5-.82s1.85,2.6,1.86,4c0,2-.78,4-1.38,6.67,4.21-1.36,8.5-5.45,11.62-.22.85,1.42-1.28,4.64-2.05,7l-1.2-1.25.78-5c-1.82.17-3.64.29-5.44.54A5.64,5.64,0,0,0,257,32l-1.53-.74-.29.59,1.39.45-1.72,1.61-1.45,1h.44Z"/><path class="cls-5" d="M289.91,24.81,285.1,25l.12-.09-1.06-1,.12,0L282.09,19a1.59,1.59,0,0,0,.13.13c-1.09-3.31-2.44-6.56-3.22-9.94C277.56,3,277.7,3,283.82,3.27l.2-.09.36,3.2q.92,2.31,1.85,4.64c.42,2.63.84,5.27,1.32,8.3,3.94-4,3.53-7.75-.45-9.17l-.89-3.66.09-2Q297,12.52,289.91,24.81Z"/><path class="cls-5" d="M217,21.93l-1.83.05c-.58-3.23-.93-6.53-1.82-9.68-.39-1.36-1.78-3.26-2.92-3.42-2.53-.34-5.19.26-7.53.46l5.73,10.82c-.39.48-.79.95-1.18,1.42-2.48-3.77-5.08-7.47-7.36-11.36-.62-1.07-.86-3.28-.21-3.94s2.67-.57,4.07-.55a39,39,0,0,1,5.6.5c1.24.21,2.76.43,3.58,1.24,4.84,4.7,4.78,4.76,9-.51l1.25,1.36c-.58,1-.92,2.64-1.79,3C216.57,13.45,216.58,17.56,217,21.93Z"/><path class="cls-6" d="M140.63,217.59c-.9-1.23-1.56-2.79-2.74-3.64-5.86-4.21-9-10.2-11-17.29l7.2,4-.09-.08.66,1.09c4.92,4.65,8.32,10.08,8.64,17.06Z"/><path class="cls-5" d="M180.39,32.35c-.78,1.61-1.73,2.67-3.44,1-1.19-1.26-2.67-2.37-3.5-3.85s-1.56-3.49-1-4.72c.43-1,2.81-1.13,4.25-1.82a21.86,21.86,0,0,0,2.76-1.9l2.08-.82c-.1,2.06-.21,4.12-.34,6.53l-6.57-1.15-.46,1L179,30.93l-.57.58.76-.12,0,.32h-.33l1,1A.38.38,0,0,1,180.39,32.35Z"/><path class="cls-3" d="M143.25,218.75c-.32-7-3.72-12.41-8.64-17.06l1.29-1.34a22.52,22.52,0,0,1,9,14.18C145.17,215.78,143.85,217.33,143.25,218.75Z"/><path class="cls-3" d="M68.49,190.94l-1.32-1.39c3.12-3.29,6.31-6.51,9.31-9.9a16.18,16.18,0,0,0,1.92-3.78l2.43,1.38h0L79.34,180Z"/><path class="cls-5" d="M49.86,208.43c.2.71.4,1.42.59,2.14-3.3,6.09-3.21,12.39-1.14,18.81l-.67,2C44.05,223.07,44.47,215.28,49.86,208.43Z"/><path class="cls-5" d="M116.81,214.21l1.53-.87,2.25,2.64,3.61-12.68,3.32,2c-.75.94-1.86,1.76-2.19,2.82-1.28,4.13-2.21,8.39-6.8,11.23C117.9,217.45,117.35,215.83,116.81,214.21Z"/><path class="cls-5" d="M94.27,224.07l.71,6.34c-1,1.07-1.89,2.14-2.84,3.2-2-2.43-6-4.17-2.87-8.35.31.22.63.44,1,.63a3,3,0,0,0,.23-.31l-1.11-.41,4.09-2.36c0,.27-.1.4-.37.39l1,1Z"/><path class="cls-4" d="M283.82,3.27C277.7,3,277.56,3,279,9.19c.78,3.38,2.13,6.63,3.22,9.94-1.65-3.13-3.47-6.19-4.83-9.43-.68-1.61-.52-3.56-.74-5.36-.13-.51-.27-1-.4-1.51l-1-1.73L277.28,0Z"/><path class="cls-4" d="M334,19.64l7.86,5.87-1.25,1.19L332,29.09l-1.18-.82,5.32-2.89-2.52-5.23Z"/><path class="cls-5" d="M278.74,52.7,280,54,276.2,60.3l-.87-2.58Z"/><path class="cls-3" d="M97.82,178.81c-3.25-1.56-.63-3,.46-3.33,1.36-.45,3.07.17,4.63.32C101.19,176.77,98,175.21,97.82,178.81Z"/><path class="cls-1" d="M158.46,62.09l-3.07.88c-.21-1.12-.41-2.24-.62-3.36l1.33-1.3Q157.27,60.2,158.46,62.09Z"/><path class="cls-3" d="M311.84,175.83l6-.43Z"/><path class="cls-4" d="M284.38,6.38,284,3.18l2.28,1.28-.09,2Z"/><path class="cls-4" d="M282.09,19l2.19,4.92Z"/><path class="cls-5" d="M277.28,0l-2.06,1.1-1.14-1Z"/><path class="cls-3" d="M111.32,177.89l-.74-2.14,1.45.1Z"/><path class="cls-5" d="M340.65,26.7l1.25-1.19.57,2.28Z"/><path class="cls-3" d="M268.8,81.19l-.28-2.65Z"/><path class="cls-1" d="M79.34,180l1.46-2.7C80.32,178.16,79.83,179.05,79.34,180Z"/><path class="cls-1" d="M135.9,200.35l-1.29,1.34L134,200.6Z"/><path class="cls-3" d="M133.29,198l1.54-.18Z"/><path class="cls-4" d="M284.16,23.89l1.06,1Z"/><path class="cls-5" d="M276.25,2.83c.13.5.27,1,.4,1.51Z"/><path class="cls-3" d="M108.67,177.78l.66,1Z"/><path class="cls-1" d="M159.89,64.47l-1.06-.91Z"/><path class="cls-1" d="M158.93,63.62l-1-.93Z"/><path class="cls-5" d="M269.17,54.47l0-2.12Z"/><path class="cls-6" d="M187.88,75.07l9.46,2.44L193.9,72c4.81-1.75,9.77-.33,11.37,3.73,1.32,3.36,3.1,4.83,6.63,4.77.76,0,1.55,1.39,2.32,2.13l-10.1-2L200.29,78l-.6.77,2.52,3.35c-3.59-.1-7.27.28-10.72-.43C188.42,81,186.88,78.47,187.88,75.07Z"/><path class="cls-7" d="M136.67,65.71l5.46,2.74-3.65,5.46,0,0-1-.08.06,1,0,0-1.85.92h0l-8.17,5.49-8-.12-2.07-1.69c.53-.46,1-1.21,1.59-1.34C126.72,76.39,132.11,71.65,136.67,65.71Z"/><path class="cls-6" d="M241,79.2c-1.76-.74-3.49-1.52-5.27-2.19-2.47-.94-5-1.8-7.83-2.82,5.63-6.38,16.45-2.83,20.79,5.69l0-.24C246.42,83.74,245.49,83.69,241,79.2Z"/><path class="cls-6" d="M267.62,72.26l-.18.26c-.33-.09-.65-.2-1-.3l-9.21-1.53c1.1-.84,1.84-1.86,2.71-2,3.11-.49,6.26-.7,9.4-1,.89-.08,2.05-.29,2.65.16,1.81,1.32,3.41,2.93,5.1,4.44-2,.19-3.91.4-5.87.55a4.82,4.82,0,0,1-1.32-.26C269.16,72.49,268.39,72.38,267.62,72.26Z"/><path class="cls-6" d="M143.63,68.77c2.08-.47,4-.65,3.91,2.4l-11,9.94-6.43,1.6c1.19-1.2,2.46-2.34,3.53-3.64a29.54,29.54,0,0,0,2.11-3.35h0l1.85-.92,0,0,.93-.93,0,0Z"/><path class="cls-6" d="M217.37,81.87c1.1-5.82,6.59-8.31,11.35-5.22,2,1.28,2.33,2.58.44,4.19Z"/><path class="cls-6" d="M257.17,79.06l-4.67-4.33c0-.5-.05-1-.07-1.5l12.16,3.7c.56,1.38,1.13,2.76,1.7,4.14-1.84.22-3.75.84-5.5.51-1.32-.24-2.42-1.69-3.63-2.6Z"/><path class="cls-6" d="M124.2,203.3,120.59,216l-2.25-2.64c.1-10,.76-12.38,5-16.29C123.64,199.45,123.92,201.38,124.2,203.3Z"/><path class="cls-7" d="M186,72.85l-6.64-2.95c3.52-3.66,8.18-4.27,11.82-1.56a4.65,4.65,0,0,1,1.21,2.4c-1.47,1-3.07,1.78-4.63,2.63Z"/><path class="cls-8" d="M153.08,73.92l3.69,1.76,2.52,2c-.56.86-1.11,1.73-1.66,2.59-3.34,2.54-7,1.93-10.69,1.08Z"/><path class="cls-6" d="M128.14,192.63a23.92,23.92,0,0,1,17,.34A15.5,15.5,0,0,1,128.14,192.63Z"/><path class="cls-6" d="M82.9,188.73l-2,.85-.83-.87,10.24-10.25c1.94-.13,3.67,0,1.67,2.44-1.45,1.78-3.1,3.38-4.67,5.06l.1,0-1.82,1.83,0,0Z"/><path class="cls-6" d="M149.06,71.46l3,1.57-6.53,7.85c-2.2.87-4.3,3.45-6.74.4Z"/><path class="cls-9" d="M182.4,80.25l-6.44-4c2.49-3,5.71-2.61,8.93-2.26.08,1.46.49,3,.11,4.35C184.76,79.14,183.31,79.61,182.4,80.25Z"/><path class="cls-10" d="M257.17,79.06V79c-2.33,5.1-5.08,5.32-8.45.66l0,.24,1.69-3.2Z"/><path class="cls-10" d="M231.14,81.4c2.5-3.1,5.45-2.79,8.59-1.14l.45,1.94Z"/><path class="cls-5" d="M149.06,71.46l-10.25,9.82-2.26-.17,11-9.94Z"/><path class="cls-10" d="M83,193.33c-1.2.64-2.4,1.28-3.59,1.93a4.19,4.19,0,0,0-.61-.65l5.17-4.88,1.69-1.95,0,0L87.41,186l-.1,0,2.94.61c-.32.76-.63,1.49-1,2.22l-1.78,1-1.61,1.12-3,2.47Z"/><path class="cls-8" d="M93.84,184.05l5.68,6.12-1.15,1.12-4.44-2.68Z"/><path class="cls-5" d="M135.76,75.72a29.54,29.54,0,0,1-2.11,3.35c-1.07,1.3-2.34,2.44-3.53,3.64l-2.53-1.5Z"/><path class="cls-11" d="M145.55,80.88,152.08,73l1,.89-6.14,7.44Z"/><path class="cls-3" d="M157.63,80.28c.55-.86,1.1-1.73,1.66-2.59l2.94.8h0l1.59,2.61c-.19.45-.38.91-.56,1.36Z"/><path class="cls-3" d="M202.21,82.07l-2.52-3.35.6-.77,3.83,2.68Z"/><path class="cls-3" d="M162.23,78.49l.68-2.41,1.08.72-1.77,1.68Z"/><path class="cls-5" d="M291.65,57.42c0-1-.44-2.42,0-2.76,2.92-2.23,6-4.2,9.08-6.26a8.78,8.78,0,0,0-.06,3.1c.15.48,1.43.58,2.2.84l4.26,1,2.78-2.19c.75,3.71,3.14,2.86,5.54,2l.88-.26,1.39.13c.39,2.13.39,2.13,4.09.88.39.51.7,1.4,1.17,1.49,2.61.53,5.26.86,7.9,1.25-.95.93-1.91,1.85-2.87,2.77l-2.8.88-.86.29-1.92-2.85-.78.38c.26,1,.52,2.07.79,3.11-1.12,1.2-2.23,2.41-3.34,3.61a32.3,32.3,0,0,1-2-5.47c-.57-3-2.08-4.11-5.62-3.23l3.88,9.64h-.4l-.4,0-6-10.72-1.13.68L309,62.11l-4.62-7.77v6.88c-.71-1.7-1.42-3.39-2.66-6.32v6.25c-.35-1.18-.43-2.56-1.12-3.5-.56-.77-1.84-1-2.79-1.5l-3.67,1.35-1.5.07Z"/><path class="cls-6" d="M190.32,53.12l-1.27,2.45c-1.78-1.21-4-2.11-5.25-3.72-1.52-1.88-2.26-4.39-3.29-6.54,6.72-1.29,9.26-.41,13.41,4L187.25,37c5.84-.06,9,4.42,10.26,14.82l-4.2-.63c.11,1.12.2,2.11.34,3.51l-2.82-2.11-.92-.44Z"/><path class="cls-6" d="M198.73,61.14l-3.67-5c6.47-2.85,10.87-1.19,12.56,5,1.1,4.05,1.37,8.33,2,12.51l-1.83.46-3.1-7.4c-.3,1.84-.47,3-.55,3.47l-5.47-9Z"/><path class="cls-7" d="M208.65,20.16,202.92,9.34c2.34-.2,5-.8,7.53-.46,1.14.16,2.53,2.06,2.92,3.42.89,3.15,1.24,6.45,1.82,9.68l-2.89,4.45Z"/><path class="cls-6" d="M252.44,51.24c-5.06-1.22-5.74,3.19-6.87,6-1.54,3.82-3.77,4.64-8.6,3.44,3-4.11,5.62-7.74,8.25-11.37l0,0c.33-.32.65-.64,1-1l0,0c2.69-3,5.35-6,10.1-4.22-.63,2.1-1.22,4.05-1.81,6Z"/><path class="cls-7" d="M240.28,22.21c4.54,5.23,4.45,11,2,17l-4.64,5.43c-1-.9-1.42-1.1-1.4-1.27.6-6.38,1.17-12.77,2-19.13C238.3,23.52,239.56,22.9,240.28,22.21Z"/><path class="cls-6" d="M226,48.48c1.44,6.45-2.11,10.78-6,15.07.12-1.09.23-2.19.5-4.69L216.77,65C212.61,58.4,217.47,52.59,226,48.48Z"/><path class="cls-7" d="M257.05,53l10.28-1.18c-1.23,3-2.12,5.27-3,7.5l0,0c-3.62.39-7.24.83-10.88,1.15-1.59.14-3.2,0-6.13,0L252,56.17l0-.1.88-1v.21l2.05-1.3Z"/><path class="cls-6" d="M238.52,51.65c1.44,6.32-7.71,12-14.68,12.72C226.38,57.38,229.8,51.66,238.52,51.65Z"/><path class="cls-7" d="M264.32,59.35c2,0,4.17-.43,6.1,0,1,.22,1.56,2,2.32,3.06-3.2,1.38-6.28,3.24-9.62,4-3.1.71-6.84,1.09-8.17-3.64l9.39-3.46Z"/><path class="cls-7" d="M212.57,43c4.32,4,3.27,11.66-2.49,18.48C207.39,54.91,205.4,48.47,212.57,43Z"/><path class="cls-6" d="M244.54,41c.51-4.42.44-9,1.75-13.19.75-2.42,3.73-4.13,5.7-6.16.68,1.12,2.19,2.57,1.89,3.31a69.32,69.32,0,0,1-4.29,7.94c-.31,1.1-1.08,2.33-.83,3.29C250.15,41.48,250.23,41.46,244.54,41Z"/><path class="cls-6" d="M215,76.87c.15.6,0-.08-.25-1L211.11,78c-1.28-7.77,3.68-12.73,11-11.3.62.12,1.66.9,1.6,1.19a6,6,0,0,1-1.34,3.18C220,73.2,217.4,75,215,76.87Z"/><path class="cls-6" d="M192.3,14.67c7.3,1.48,8.48,2.6,9.87,9.75-1.9.69-4,2.19-5.68,1.84a7,7,0,0,1-4.56-3.92C191.26,20.11,192.09,17.43,192.3,14.67Z"/><path class="cls-7" d="M207.44,42.67a68.06,68.06,0,0,1-6.07-4.3c-1.24-1.12-2.9-2.54-3-3.95-.22-2.24.68-4.58,1.1-6.88,2.1,1.42,5.13,2.39,6.07,4.36C206.88,34.77,206.76,38.35,207.44,42.67Z"/><path class="cls-7" d="M217,21.93c-.44-4.37-.45-8.48,4.58-10.61.87-.36,1.21-2,1.79-3,2.16-1.84,3.25-.59,2.9,1.48a42.81,42.81,0,0,1-2.67,8.9c-.72,1.77-2.12,3.26-3.57,5.38Z"/><path class="cls-6" d="M222.22,47c.83-6.68-2.14-13.17,2.27-18.9C230.26,35.68,229.67,42.28,222.22,47Z"/><path class="cls-6" d="M217.05,48.58c-.12-4-.13-8-.41-11.92-.16-2.23-1-4.43-1.08-6.65,0-1.42.83-2.86,1.3-4.29,1.13,1,2.27,2,3.37,3a1.24,1.24,0,0,1,.24.86c-.14,5.56-.27,11.12-.5,16.67a8.45,8.45,0,0,1-.91,2.39Z"/><path class="cls-7" d="M271.57,45.62c-.5,0-1.21-.26-1.48,0A21,21,0,0,1,257,51.12l-2-.87c.46-.33,1.2-.58,1.34-1,2.62-8.15,9.89-5.56,15.79-7.17-.25,1.48-.42,2.51-.6,3.54Z"/><path class="cls-6" d="M246.29,62c4.54,1.15,7.9,2.23,8.79,6.25.5,2.27-.37,3.56-3,2.63-1.68-.59-3.42-1.49-5.12-1.46-3.06,0-5.57-1-5.11-4C242.06,63.91,245.1,62.84,246.29,62Z"/><path class="cls-6" d="M187.43,42.41c-8.44,2.46-13.2-6.11-21.2-5.73C170.4,32.08,184.68,36.44,187.43,42.41Z"/><path class="cls-6" d="M198.68,61.09l2.21,7.71c-3.86.45-6.4-.15-8.32-3.9-1.27-2.48-4.22-4.1-6.76-6.41,3-1.69,5.94-.19,9,1.3a32.65,32.65,0,0,0,3.94,1.35Z"/><path class="cls-6" d="M224.89,72.81c2-6.58,6-10,10.65-9.93,2.51,0,2.51,0,4.62,6.57C234.71,68.9,229.11,67.51,224.89,72.81Z"/><path class="cls-6" d="M209.52,41.64c-1-4.91-2.05-10.06-3.16-15.53,3.75,1.58,7.11,3.26,8.34,7.77C216.14,39.1,212.31,40.28,209.52,41.64Z"/><path class="cls-6" d="M196.71,39.47c7.62,1.66,9.13,4.17,8.16,13.36-3.52.29-5.44-1.17-6-4.78C198.39,45.26,197.5,42.55,196.71,39.47Z"/><path class="cls-6" d="M179,30.93l-4.85-4.31.46-1,6.57,1.15c.13-2.41.24-4.47.34-6.53,1.14,1.18,3,2.21,3.25,3.56.35,1.73-.86,3.72-.82,5.58,0,1.69.83,3.35,1.3,5l-.89.91-4-3c-.31-.1-.49,0-.55.33l-1-1h.33l0-.31A.32.32,0,0,0,179,30.93Z"/><path class="cls-6" d="M227.94,28.69c-1.05-2.43-1.17-5.89-5.4-2.76,1.14-5.51,4-8.19,8-9.7a3.26,3.26,0,0,1,2.75.64,2.63,2.63,0,0,1,.12,2.47C231.78,22.35,230,25.26,227.94,28.69Z"/><path class="cls-6" d="M233.54,24c3.49,4.36,2.68,9.25,1.1,14-.39,1.2-2.26,1.91-3.45,2.84L229.94,40l1.95-16.08Z"/><path class="cls-6" d="M166.92,48.12c2.64-6.37,6.63-7,11-1.62,1.21,1.5,2.49,2.94,4.44,5.23Z"/><path class="cls-6" d="M257,32a5.64,5.64,0,0,1,1.59-.83c1.8-.25,3.62-.37,5.44-.54l-.78,5-11.6,5.93c1-2.6,1.65-4.43,2.34-6.26l-.15-.4h-.43l1.44-1,1.72-1.61A.41.41,0,0,0,257,32Z"/><path class="cls-6" d="M186.3,26.23c3,1.68,5.93,2.94,8.32,4.88,1.07.88,1,3.13,1.47,4.76a30.47,30.47,0,0,1-4.29-.52C187.4,34.21,185.05,31.65,186.3,26.23Z"/><path class="cls-6" d="M184.26,56.18A10.06,10.06,0,0,1,172.92,59C178.72,53.19,180.05,52.86,184.26,56.18Z"/><path class="cls-6" d="M229.25,51.82c-2.26-7.57-1.5-8.93,4.66-8.58C234.62,47.16,234.05,50.35,229.25,51.82Z"/><path class="cls-8" d="M245.22,49.32h-9l-.65-1.06c2.83-1.73,5.63-3.53,8.56-5.08.25-.14,1.65,1.21,2,2.08a9.4,9.4,0,0,1,0,3.18l0,0-1-.08.06,1Z"/><path class="cls-12" d="M330.89,56.61c-2.64-.39-5.29-.72-7.9-1.25-.47-.09-.78-1-1.17-1.49l7.63-2.74C332.8,52.2,334.31,53.76,330.89,56.61Z"/><path class="cls-6" d="M189.58,64.23a87.91,87.91,0,0,1-8.79,1.31c-1.22.07-2.51-.92-3.77-1.43,1-1,2-2.83,2.92-2.74a94.6,94.6,0,0,1,10.17,2Z"/><path class="cls-6" d="M315.33,65.74l-3.88-9.64c3.54-.88,5.05.18,5.62,3.23a32.3,32.3,0,0,0,2,5.47Z"/><path class="cls-6" d="M297.85,56.15c.95.48,2.23.73,2.79,1.5.69.94.77,2.32,1.12,3.5l-.08,0,1,3.75,0-.1c.12.94.23,1.88.35,2.83l-3.06.66-2.73-6.18Z"/><path class="cls-11" d="M307.14,53.31l-4.26-1c1.18-2.54,2.35-5.08,3.53-7.61l4.21,1Z"/><path class="cls-6" d="M304.42,61.22V54.34L309,62.11,309,62l.95,1.9,0-.08c.31.92.63,1.85,1,2.77-1.22,3.09-2.44.94-3.65,0l-.95-.94.05.08-.95-2.83,0,.09-1-1.9Z"/><path class="cls-6" d="M307.14,53.31l3.48-7.6c1.87-1.15,3.73-4,5.61,0l.09-.07-1.9,1.88.07-.06-1,1,.08-.07-1,1,.07-.07-1,1,.08-.07-1.91,1,.06,0Z"/><path class="cls-6" d="M309,62.11l-1.62-6.43,1.13-.68,6,10.72-2.79.91c-.62-.92-1.23-1.85-1.84-2.77l0,.08L309,62Z"/><path class="cls-6" d="M316.34,52.86l-.88.26c0-1.85-.07-3.69-.11-5.54.32-.65.65-1.3,1-2l-.09.07,1.36.24c1,2.15,2.12,3.69,4.1.8l3.65.83L319,52l0,0Z"/><path class="cls-10" d="M291.65,57.42l1,.15c.58,3,1.17,6,1.75,9-.89-.29-2.19-.3-2.61-.91-1.37-2-2.42-4.21-3.66-6.47Z"/><path class="cls-6" d="M329.45,51.13l-7.63,2.74c-3.7,1.25-3.7,1.25-4.1-.88l1.29-.93,0,0,7.47-3.29Z"/><path class="cls-8" d="M174,61.74c.64,2.15,1,3.51,1.79,6.07a59.59,59.59,0,0,1-5.92-1.56c-.4-.15-.76-1.75-.58-1.87C170.67,63.46,172.17,62.73,174,61.74Z"/><path class="cls-8" d="M301.76,61.15V54.9c1.24,2.93,1.95,4.62,2.66,6.32v-.1l1,1.9,0-.09c.32,1,.63,1.89.95,2.83l-.05-.08.22,1c.13,4-2,.76-3,.91l-.87-2.81,0,.1-1-3.75Z"/><path class="cls-6" d="M306.41,44.74c-1.18,2.53-2.35,5.07-3.53,7.61-.77-.27-2.05-.37-2.2-.85a8.78,8.78,0,0,1,.06-3.1Z"/><path class="cls-5" d="M255.05,50.25l2,.87,0,1.91-2.19.94-2.05,1.3a1.48,1.48,0,0,0,0-.21l-.87,1,0,.1-3.19-1.07,3.68-3.86,2-1A2,2,0,0,1,255.05,50.25Z"/><path class="cls-13" d="M252.43,73.23c0,.5,0,1,.07,1.5l-7.25-2.16.6-1.81Z"/><path class="cls-8" d="M297.16,62.07l2.73,6.18-3.56-.72c1.44-1,2.62-2-.21-2.63v0c.35-.92.69-1.85,1-2.77Z"/><path class="cls-12" d="M326.51,48.75,319,52l6.3-4.48Z"/><path class="cls-12" d="M294.43,66.53c-.58-3-1.17-6-1.75-9l1.5-.07,1,5.66,1,1.7v0c-.12.6-.23,1.2-.35,1.8Z"/><path class="cls-10" d="M321.69,46.73c-2,2.89-3.1,1.35-4.1-.8C319.31,44.38,320.71,44.47,321.69,46.73Z"/><path class="cls-6" d="M325.22,60.26l2.8-.88c.37,1.34.74,2.69,1.32,4.82l-3.07-1.28Z"/><path class="cls-6" d="M322.45,61.19c-.27-1-.53-2.07-.79-3.11l.78-.38,1.92,2.84,1,2.39Z"/><path class="cls-12" d="M325.35,62.93l-1-2.39.86-.28,1,2.66Z"/><path class="cls-6" d="M295.77,66.7c.12-.6.23-1.2.35-1.8,2.83.65,1.65,1.63.21,2.63Z"/><path class="cls-5" d="M309.9,63.86c.61.92,1.22,1.85,1.84,2.77h-.89C310.53,65.71,310.21,64.78,309.9,63.86Z"/><path class="cls-14" d="M257.54,41.17l2.09-.55.17.86-2.17.25Z"/><path class="cls-5" d="M302.6,64.76l.87,2.81-.26.05-.26,0C302.83,66.64,302.72,65.7,302.6,64.76Z"/><path class="cls-1" d="M266.46,72.22c.33.1.65.21,1,.3l-.89.46Z"/><path class="cls-5" d="M306.47,66.66l-.22-1,.95.94A3.54,3.54,0,0,1,306.47,66.66Z"/><path class="cls-6" d="M53.72,210.64l3.11-7.6c1.81,8.34,1.81,15.23-.12,22.1l-2,4.7L53,229.67Z"/><path class="cls-6" d="M39.12,191.61l-3.2-1.43c9.4-2.13,17.75-2,25.94,1l.07,1.3-9.07,1Z"/><path class="cls-6" d="M58.33,225.23c.72-6.26,1.45-12.53,2.13-18.43,5.84,5.49,3.52,21.73-4.14,25.14-.19.08-.67-.16-.81-.38s0-.58,0-.88Z"/><path class="cls-6" d="M12.67,220H7.23c2.87-3.29,7.32-4.87,14-4.85a48.6,48.6,0,0,1,6.73.93Z"/><path class="cls-6" d="M29.06,218c-6,7.35-13.7,7.79-22.89,5l6.53-1.51Z"/><path class="cls-8" d="M49.31,229.38c-2.07-6.42-2.16-12.72,1.14-18.81l1.55.06-.66,19.24Z"/><path class="cls-6" d="M35.81,187.15c6.28-3.13,12.51-3.27,18.65,0Z"/><path class="cls-5" d="M29.06,218,12.7,221.48l0-1.44L28,216.12l2.48-.3L31.65,217Z"/><path class="cls-5" d="M51.34,229.87,52,210.63h1.72l-.69,19Z"/><path class="cls-8" d="M29.21,212.6l-17.37,2.21C15.65,211.64,22.07,210.62,29.21,212.6Z"/><path class="cls-10" d="M52.65,195.43c-6.41,3-12,.11-17.57-2.8H38Z"/><path class="cls-5" d="M52.65,195.43,38,192.63l1.15-1,13.74,1.86Z"/><path class="cls-5" d="M58.33,225.23l-2.8,5.45-.86-.84,2-4.7Z"/><path class="cls-6" d="M135.05,46.43c4.55,0,7.36,2.31,8.4,6.64.94,3.87,1.64,7.79,2.45,11.69l-1.48.81-4-3.78c-3.07,2.83-4.18.69-4.88-2.41q-4-6.42-8-12.84l0,.08c1.78-3.06,3.59-1.46,5.39,0l6.15,12.21,1,1.56.7-.33c-.23-.82-.46-1.65-.7-2.47Z"/><path class="cls-8" d="M116.43,56.51c-1.55-.55-3.08-1.16-4.66-1.61-.69-.2-1.49.05-2.2-.08-2.82-.52-5.63-1-8.4-1.75-.37-.1-.82-1.44-.6-1.92.31-.68,1.24-1.57,1.85-1.53a12.37,12.37,0,0,1,3.3,1.22l1.34,1,2.86,2.44.77-1-2.85-2.47-1.92-1.65,4-.56,2.17,1.67,0,0,4.6,4.59,0,0C116.56,55.35,116.5,55.93,116.43,56.51Z"/><path class="cls-6" d="M109,66.47l-6.69-2.68.29-1.73c3-1.19,4.67-6.34,9.48-2,.93.84,3.46-.08,5.25-.19Z"/><path class="cls-6" d="M116.63,76.78l-3.45-1.58c7.23-2.28,14.09-5.2,19.14-11.21l2.46,1.71C129.7,71,124.27,75.69,116.63,76.78Z"/><path class="cls-6" d="M129.28,57.5c-1.08,2.6-2.79,2.32-5.46-.87l-6.23-8.25h0l-1-2.69c3-.82,5.42-.14,7.16,2.52Q126.54,52.85,129.28,57.5Z"/><path class="cls-6" d="M117.79,61.84c2.2-2,4.37-3,6.39.22L111.1,70.68l-2.94-.81,2.64-3Z"/><path class="cls-6" d="M126.1,62.25l4.26,1.66L113,73.42l-1.71-1.19Z"/><path class="cls-8" d="M154.77,59.61c.21,1.12.41,2.24.62,3.36-.2,2.34-.4,4.69-.61,7.12-4.07-1.45-4.07-1.45-3-14.82Q153.28,57.44,154.77,59.61Z"/><path class="cls-5" d="M116.63,76.78c7.64-1.09,13.07-5.79,18.15-11.08h1.89c-4.56,5.94-9.95,10.68-17.54,12.35-.6.13-1.06.88-1.59,1.34Z"/><path class="cls-10" d="M147.58,67.14c-.83-5.29-1.65-10.59-2.51-16.07C149.2,53.89,150.67,60.65,147.58,67.14Z"/><path class="cls-8" d="M111.49,48.33c.64-2.4,1-2.43,4.16-.38l1.93.42h0l4.8,8.26-4-1-1.73-.88,0,0c-.54-3.29-1.48-4.22-4.6-4.59l0,0C111.89,49.62,111.69,49,111.49,48.33Z"/><path class="cls-5" d="M113,73.42l17.41-9.51,2,.08c-5,6-11.91,8.93-19.14,11.21C113.11,74.61,113,74,113,73.42Z"/><path class="cls-8" d="M134.13,59.42l-2,1-1.5-3.2-6.51-10.74c.34-1.62.34-1.62,3.52.15l0-.08Z"/><path class="cls-5" d="M126.1,62.25l-14.86,10c0-.52-.09-1-.14-1.55l13.08-8.62Z"/><path class="cls-5" d="M134.13,59.42l-6.54-12.88q4,6.42,8,12.84Z"/><path class="cls-5" d="M139.17,58.81,133,46.6l2-.17,5.14,11.14Z"/><path class="cls-11" d="M124.11,46.47l6.51,10.74-1.34.29q-2.75-4.65-5.5-9.3Z"/><path class="cls-5" d="M117.79,61.84l-7,5L109,66.47l8.33-6.56Z"/><path class="cls-5" d="M122.39,56.64l-4.8-8.26,6.23,8.25Z"/><path class="cls-5" d="M143.63,68.77l-5.15,5.14,3.65-5.46Z"/><path class="cls-11" d="M107.06,51.86l-1.34-1c.06-.57.13-1.13.2-1.69l1.92,1.65Z"/><path class="cls-5" d="M117.58,48.37,115.65,48c.32-.76.65-1.52,1-2.27Z"/><path class="cls-5" d="M111.49,48.33c.2.65.4,1.29.61,1.93l-2.17-1.67Z"/><path class="cls-5" d="M116.63,54.78l1.73.88-1.93.85C116.5,55.93,116.56,55.35,116.63,54.78Z"/><path class="cls-11" d="M322.7,30.44c-1.78,4.11-6.08,3.26-9.22,4.26-4.65,1.49-9.67,1.86-14.55,2.59a6.65,6.65,0,0,1-2.39-.61l10.8-6.75,9.38-3.39Z"/><path class="cls-5" d="M307.34,29.93l-10.8,6.75c-.4-.44-1.1-.83-1.15-1.31-.36-2.89,3.36-9.51,5.87-10.69.31,1.65.63,3.3.94,4.95h1.67l.59-9.08,1.83-.39c.34,2.36-3.19,5.15.78,7.11Z"/><path class="cls-5" d="M314.17,16.72l5.25,1.89c.6-.32,1.95-1.69,3-1.51,1.65.29,3.12,1.65,4.66,2.55-1.63,1-4,3.35-4.75,2.91-3-1.82-4.62-1-6.62,1.32-.66.8-2.51.61-3.81.86C312.67,22.07,313.42,19.39,314.17,16.72Z"/><path class="cls-6" d="M314.17,16.72c-.75,2.67-1.5,5.35-2.24,8l-4.86,2.53c-4-2-.44-4.75-.78-7.11Z"/><path class="cls-8" d="M322.7,30.44l-6-3.9,8.58-2.34,4.44,4Zm1.78-3.88-.71-.2.78.12.56.56Z"/><path class="cls-5" d="M329.74,28.23l-4.44-4,8.32-4.05,2.52,5.23-5.32,2.89Z"/><path class="cls-8" d="M304.46,20.55l-.59,9.08H302.2c-.31-1.65-.63-3.3-.94-4.95C302.33,23.31,303.39,21.93,304.46,20.55Z"/><path class="cls-14" d="M286,43.3l-.3.31c-.1-.1-.28-.21-.28-.32s.18-.21.28-.32Z"/><path class="cls-8" d="M92.11,194.51c4.3-.34,8.66,2.57,9.48,6.56.11.54-1,1.33-1.82,2.25-.7,1.53,7.14,4.09-.42,5.5l-8-5.47a1.59,1.59,0,0,1,0-.78c.5-1.31,1-2.61,1.51-3.92l1.11.77L99.1,203l.78-1.21L95,198.52l-2.12-1.43C92.64,196.23,92.37,195.37,92.11,194.51Z"/><path class="cls-7" d="M77.36,215.2a82.61,82.61,0,0,1,4.42-7.43,80.46,80.46,0,0,1,5.68-6.31l2,.95q-2.17,4.47-4.34,9l-5.82,5.76Z"/><path class="cls-6" d="M86.8,211.68c3.57,2.65,1.52,5.23-.14,7.77-.9,1.38-1.91,2.68-2.87,4l.09-.09-1,1,.08-.07-1.93.95.07-.1c-5.4-2-1-4.69-.5-7.1Z"/><path class="cls-6" d="M91.34,203.35l8,5.47c2.88,4.19,2.27,6.88-1.84,8.16l0,.05-1-2.34,0-.08C94.5,211,89.57,208.74,91.34,203.35Z"/><path class="cls-8" d="M96.57,214.61l0,.08,1,2.34,0-.05c-.33,2.59-.67,5.19-1,7.78l-2.24-.69-.18.12-1-1c.27,0,.39-.12.37-.39-2-2.84-3.54-5.81-2.37-9.45l2-.09Z"/><path class="cls-1" d="M89.46,202.41l-2-.95c0-.66-.09-1.31-.13-2,.69-.92,1.39-1.84,2.09-2.75l-1.89-1.42v-.39c0-.5,0-1,0-1.5l1-1.92-.06.06,1.56-.2,2.16,3.14c.26.86.53,1.72.79,2.58v1.56c-.5,1.31-1,2.61-1.51,3.92Z"/><path class="cls-6" d="M83.79,223.46l3.72-.29c-2.05,3.13-3.48,5.5-5.14,7.7-.28.37-1.82.31-2.29-.1a2.76,2.76,0,0,1-.64-2.36,16,16,0,0,1,1.67-3.26l-.07.1L83,224.3l-.08.07,1-1Z"/><path class="cls-5" d="M86.8,211.68l-6.19,6.37-1.31-.93,5.82-5.76Z"/><path class="cls-10" d="M93,213.27l-2,.09-.33-1.42Z"/><path class="cls-5" d="M85.9,190.9l1.62-1.12,1,.89c0,.3-.09.6-.14.9l.06-.06-1.7.21Z"/><path class="cls-8" d="M88.39,191.57c0-.3.09-.6.14-.9l1.42.7Z"/><path class="cls-6" d="M87.53,195.32l1.89,1.42c-.7.91-1.4,1.83-2.09,2.75l-9.42,10.14-1.73-.88c.48-1.43.58-3.24,1.53-4.23C80.82,201.29,84.24,198.36,87.53,195.32Z"/><path class="cls-8" d="M85.41,195.07l-8.48,7.13-.84-.72c1.29-1.45,2.61-2.87,3.86-4.34,1-1.24,2-2.54,3-3.81l0,0,2.79-.05C85.6,193.91,85.51,194.49,85.41,195.07Z"/><path class="cls-3" d="M85.62,187.78l-1.69,1.95-1-1Z"/><path class="cls-10" d="M79.37,195.26l-1.82,1.48-1-1,2.2-1.1A4.19,4.19,0,0,1,79.37,195.26Z"/><path class="cls-3" d="M85.41,195.07c.1-.58.19-1.16.29-1.75l0,.05,1.84.06c0,.5,0,1,0,1.5Z"/><path class="cls-3" d="M257,32a.41.41,0,0,1-.43.3l-1.39-.45.29-.59Z"/><path class="cls-3" d="M254.89,33.9l-1.44,1Z"/><path class="cls-10" d="M287.1,10.15c4,1.42,4.39,5.18.45,9.17-.48-3-.9-5.67-1.32-8.3l-.06.05,1-1Z"/><path class="cls-10" d="M284.38,6.38l1.83.11c.3,1.22.6,2.44.89,3.66l0-.05-1,1,.06-.05Q285.3,8.7,284.38,6.38Z"/><path class="cls-3" d="M178.83,31.72l1,1Z"/><path class="cls-3" d="M179,30.93a.32.32,0,0,1,.19.47l-.76.11Z"/><path class="cls-3" d="M89.35,225.17l1.11.41a3,3,0,0,1-.23.31c-.33-.19-.65-.41-1-.63Z"/><path class="cls-3" d="M93.07,223.2l1,1Z"/><path class="cls-5" d="M137.61,74.8l-1.85.92Z"/><path class="cls-5" d="M138.51,73.89l-.93.93-.06-1Z"/><path class="cls-3" d="M87.41,186l-1.82,1.83Z"/><path class="cls-5" d="M85.7,193.32l-2.79.05,3-2.47.84.82-1.1,1.65Z"/><path class="cls-10" d="M315.35,47.58c0,1.85.08,3.69.11,5.54-2.4.86-4.79,1.71-5.54-2l-.06,0,1.91-1-.08.07,1-1-.07.07,1-1-.08.07,1-1-.07.06Z"/><path class="cls-8" d="M295.14,63.16l-1-5.66,3.67-1.35-.69,5.92,0,0Z"/><path class="cls-12" d="M319,52.06l-1.29.93-1.38-.13Z"/><path class="cls-3" d="M190.32,53.12l-.41-.93.92.44Z"/><path class="cls-3" d="M245.18,49.37l-.06-1,1,.08C245.83,48.73,245.51,49.05,245.18,49.37Z"/><path class="cls-3" d="M252.81,55.27l2.05-1.3Z"/><path class="cls-3" d="M251.93,56.07l.87-1Z"/><path class="cls-5" d="M301.68,61.11l1,3.75Z"/><path class="cls-5" d="M306.3,65.76c-.32-.94-.63-1.88-.95-2.83C305.67,63.88,306,64.82,306.3,65.76Z"/><path class="cls-5" d="M305.4,63l-1-1.9Z"/><path class="cls-5" d="M309,62l.95,1.9Z"/><path class="cls-5" d="M315.35,47.58l-.93-.08,1.9-1.88C316,46.28,315.67,46.93,315.35,47.58Z"/><path class="cls-5" d="M311.77,50.19l-1.91,1Z"/><path class="cls-5" d="M312.68,49.28l-1,1Z"/><path class="cls-5" d="M313.59,48.36l-1,1Z"/><path class="cls-5" d="M314.49,47.44l-1,1Z"/><path class="cls-6" d="M295.14,63.16l2-1.07c-.34.92-.68,1.85-1,2.77Z"/><path class="cls-3" d="M139.17,58.81l1-1.24c.24.82.47,1.65.7,2.47l-.7.33Z"/><path class="cls-5" d="M112.05,50.22c3.12.37,4.06,1.3,4.6,4.59Z"/><path class="cls-11" d="M107.84,50.8l2.85,2.47-.77,1-2.86-2.44Z"/><path class="cls-5" d="M324.48,26.56l.63.48-.56-.56Z"/><path class="cls-5" d="M324.55,26.48l-.78-.12.71.2Z"/><path class="cls-5" d="M95,198.52l4.86,3.23L99.1,203,94,199.42Z"/><path class="cls-5" d="M92.9,198.65v-1.56L95,198.52l-1,.9Z"/><path class="cls-3" d="M83,224.3l-1.93.95Z"/><path class="cls-3" d="M83.88,223.37l-1,1Z"/><path class="cls-3" d="M97.55,217l-1-2.34Z"/><path class="cls-8" d="M85.65,193.37l1.1-1.65,1.7-.21-1,1.92Z"/><path class="cls-5" d="M286.17,11.07l1-1Z"/></g></g></svg>