<svg xmlns="http://www.w3.org/2000/svg" viewBox="0 0 68.6 77.92"><g id="Layer_2" data-name="Layer 2"><g id="Layer_1-2" data-name="Layer 1"><path d="M0,38.87C0,33,.08,27.06,0,21.15A3.69,3.69,0,0,1,2.15,17.5Q17.27,9.1,32.32.58a3.53,3.53,0,0,1,3.88,0q15.06,8.5,30.18,16.9a3.88,3.88,0,0,1,2.22,3.84q-.09,17.72,0,35.43a3.86,3.86,0,0,1-2.26,3.81Q51.49,68.79,36.71,77.17a4.34,4.34,0,0,1-4.82,0Q17,68.76,2.09,60.49A3.68,3.68,0,0,1,0,56.79C.06,50.82,0,44.84,0,38.87ZM5,24.44a11.74,11.74,0,0,0-.16,1.19c0,9.8,0,19.6,0,29.4a3.1,3.1,0,0,0,1.43,2.15C14.12,61.64,22,66,29.78,70.37c.57.32,1.19.56,1.79.84.15-.34.26-.46.26-.58,0-10,.05-20,0-30a2.72,2.72,0,0,0-1.3-1.82C27,36.7,23.38,34.72,19.8,32.71Zm58.64.11c-.7.3-1.15.44-1.55.66-7.88,4.42-15.73,8.88-23.65,13.24a3.06,3.06,0,0,0-1.76,3.13c.06,9.18,0,18.35,0,27.52,0,.65.09,1.3.16,2.15.57-.24.89-.34,1.17-.5C46.2,66.2,54.34,61.67,62.4,57a3.33,3.33,0,0,0,1.2-2.48c.09-9.11.06-18.21.06-27.32ZM7.38,20.22c.58.27.84.37,1.09.51C16.75,25.38,25,30.06,33.33,34.67a2.3,2.3,0,0,0,1.87,0c3.24-1.73,6.42-3.57,9.66-5.4-.19-.25-.28-.48-.44-.57q-12.6-7.09-25.23-14.14a1.89,1.89,0,0,0-1.54-.07C14.37,16.27,11.13,18.11,7.38,20.22Zm16.06-9c1,.62,1.73,1,2.44,1.44,7.08,4,14.23,7.83,21.2,12,2.28,1.36,4,1.45,6.17,0,2.38-1.6,5-2.88,7.55-4.35a5.41,5.41,0,0,0-.7-.66q-12.42-7-24.87-13.94a1.91,1.91,0,0,0-1.51-.18C30.37,7.3,27.08,9.18,23.44,11.22Z"/></g></g></svg>