<svg xmlns="http://www.w3.org/2000/svg" viewBox="0 0 68.56 63.52"><g id="Layer_2" data-name="Layer 2"><g id="Layer_1-2" data-name="Layer 1"><path d="M48.8,42.7l8.46,7.42c3.3,2.88,6.61,5.75,9.89,8.64,1.6,1.42,1.82,2.74.75,3.93s-2.43,1.11-4-.28c-5.55-4.84-11.12-9.67-16.61-14.58-1.22-1.09-2-1.33-3.41-.15A26.87,26.87,0,0,1,1,19.64,26.61,26.61,0,0,1,25.9,0C36.44-.3,44.72,4.15,50.06,13.2s5.08,18.53-.2,27.74C49.55,41.47,49.22,42,48.8,42.7ZM27.06,4.83A22,22,0,1,0,49,27,22.17,22.17,0,0,0,27.06,4.83Z"/></g></g></svg>